<?xml version="1.0" standalone="no"?>
<!DOCTYPE svg PUBLIC "-//W3C//DTD SVG 20010904//EN"
 "http://www.w3.org/TR/2001/REC-SVG-20010904/DTD/svg10.dtd">
<svg version="1.0" xmlns="http://www.w3.org/2000/svg"
 width="1600.000000pt" height="1600.000000pt" viewBox="0 0 1600.000000 1600.000000"
 preserveAspectRatio="xMidYMid meet">

<g transform="translate(0.000000,1600.000000) scale(0.100000,-0.100000)"
fill="#000000" stroke="none">
<path d="M7705 15674 c-928 -47 -1720 -213 -2515 -526 -1983 -782 -3556 -2355
-4338 -4338 -283 -720 -448 -1452 -514 -2280 -15 -200 -15 -860 0 -1060 85
-1071 336 -1988 798 -2912 362 -724 809 -1347 1389 -1937 393 -400 786 -725
1239 -1026 1872 -1241 4210 -1597 6376 -970 1124 325 2159 906 3025 1696 1059
966 1816 2179 2211 3544 402 1388 402 2882 -1 4275 -181 624 -441 1224 -778
1790 -86 144 -133 216 -123 187 16 -48 47 -182 63 -272 25 -144 25 -500 0
-649 -113 -672 -523 -1232 -1123 -1534 -191 -97 -392 -162 -610 -199 -153 -25
-495 -25 -648 0 -445 75 -832 273 -1146 587 -315 315 -507 691 -587 1145 -24
141 -24 509 0 650 80 454 272 830 587 1145 311 311 697 509 1145 587 141 24
510 24 650 0 139 -25 284 -63 395 -104 87 -32 295 -130 330 -156 33 -24 -213
222 -335 335 -379 351 -824 683 -1265 945 -1043 619 -2161 970 -3385 1063
-144 11 -715 20 -840 14z m4297 -6871 l798 -798 0 -1202 0 -1203 -400 0 -400
0 0 -400 0 -400 -800 0 -800 0 0 400 0 400 -2000 0 -2000 0 0 -400 0 -400
-800 0 -800 0 0 400 0 400 -400 0 -400 0 0 803 0 802 395 1185 c217 652 397
1191 400 1198 3 9 654 12 3207 12 l3203 0 797 -797z"/>
<path d="M12405 13273 c-712 -28 -1345 -499 -1583 -1178 -109 -310 -125 -698
-41 -1012 181 -688 742 -1192 1443 -1299 131 -20 381 -20 512 0 696 106 1259
608 1439 1285 76 284 76 618 0 902 -147 553 -546 990 -1095 1199 -183 69 -459
111 -675 103z"/>
</g>
</svg>
